# xmcd
#
# Track frame offsets:
#	150
#	14110
#	45187
#	56240
#	66602
#	78620
#	89827
#	106435
#	122565
#
# Disc length: 1834 seconds
#
# Revision: 2
# Processed by: cddbd v1.5.1PL0 Copyright (c) Steve Scherf et al.
# Submitted via: EasyCDDAExtractor 7.0.5.1
#
DISCID=83072809
DTITLE=Tanya Tucker - Live
DYEAR=1982
DGENRE=Country
TTITLE0=Halfway To Heaven
TTITLE1=Medley
TTITLE2=The Jamestown Ferry
TTITLE3=Somebody Buy This Cowgirl A Beer
TTITLE4=Can I See You Tonight
TTITLE5=Pecos Promenade
TTITLE6=The Night They Drove Old Dixie Down
TTITLE7=Delta Dawn
TTITLE8=Texas (When I Die)
EXTD=
EXTT0=
EXTT1=
EXTT2=
EXTT3=
EXTT4=
EXTT5=
EXTT6=
EXTT7=
EXTT8=
PLAYORDER=
